<svg xmlns="http://www.w3.org/2000/svg" viewBox="0 0 24 24" id="chart-growth">
  <path fill="#58275d" d="M18.979 3.5a.5.5 0 0 0 .021 1h.799l-5.01 5H12a.5.5 0 0 0-.43.24L8.9 14.19l-1.55-1.54A.47.47 0 0 0 7 12.5H3a.5.5 0 0 0 0 1h3.79l1.86 1.85a.47.47 0 0 0 .35.15h.06a.52.52 0 0 0 .37-.24l2.85-4.76H15a.47.47 0 0 0 .35-.15L20.5 5.2V6a.5.5 0 0 0 .5.5.5.5 0 0 0 .5-.5V4a.5.5 0 0 0-.5-.5h-2a.5.5 0 0 0-.021 0z"></path>
  <path fill="#88c3f5" d="M18 9.5a.5.5 0 0 0-.5.5v10a.5.5 0 0 0 .5.5h3a.5.5 0 0 0 .5-.5V10a.5.5 0 0 0-.5-.5Z"></path>
  <path fill="#f53329" d="M13 11.5a.5.5 0 0 0-.5.5v8a.5.5 0 0 0 .5.5h3a.5.5 0 0 0 .5-.5v-8a.5.5 0 0 0-.5-.5Z"></path>
  <path fill="#ffab47" d="M3 14.5a.5.5 0 0 0-.5.5v5a.5.5 0 0 0 .5.5h3a.5.5 0 0 0 .5-.5v-5a.5.5 0 0 0-.5-.5Z"></path>
  <path fill="#86d172" d="M8 16.5a.5.5 0 0 0-.5.5v3a.5.5 0 0 0 .5.5h3a.5.5 0 0 0 .5-.5v-3a.5.5 0 0 0-.5-.5Z"></path>
</svg>
